<?xml version="1.0" encoding="UTF-8" standalone="no"?>
<!-- Created with Inkscape (http://www.inkscape.org/) -->

<svg
   xmlns:dc="http://purl.org/dc/elements/1.1/"
   xmlns:cc="http://creativecommons.org/ns#"
   xmlns:rdf="http://www.w3.org/1999/02/22-rdf-syntax-ns#"
   xmlns:svg="http://www.w3.org/2000/svg"
   xmlns="http://www.w3.org/2000/svg"
   xmlns:sodipodi="http://sodipodi.sourceforge.net/DTD/sodipodi-0.dtd"
   xmlns:inkscape="http://www.inkscape.org/namespaces/inkscape"
   version="1.1"
   id="svg3887"
   width="1212"
   height="256"
   viewBox="0 0 1212 256"
   sodipodi:docname="travisflix_clean_lg.svg"
   inkscape:version="0.92.3 (2405546, 2018-03-11)">
  <metadata
     id="metadata3893">
    <rdf:RDF>
      <cc:Work
         rdf:about="">
        <dc:format>image/svg+xml</dc:format>
        <dc:type
           rdf:resource="http://purl.org/dc/dcmitype/StillImage" />
        <dc:title></dc:title>
      </cc:Work>
    </rdf:RDF>
  </metadata>
  <defs
     id="defs3891" />
  <sodipodi:namedview
     pagecolor="#ffffff"
     bordercolor="#666666"
     borderopacity="1"
     objecttolerance="10"
     gridtolerance="10"
     guidetolerance="10"
     inkscape:pageopacity="0"
     inkscape:pageshadow="2"
     inkscape:window-width="1920"
     inkscape:window-height="1017"
     id="namedview3889"
     showgrid="false"
     inkscape:zoom="1"
     inkscape:cx="593.81357"
     inkscape:cy="54.774387"
     inkscape:window-x="0"
     inkscape:window-y="0"
     inkscape:window-maximized="1"
     inkscape:current-layer="svg3887" />
  <path
     style="opacity:1;fill:#f00915;fill-opacity:1;stroke-width:1.33165324"
     d="m 1194.3261,254.13604 c -6.9694,-0.97937 -15.133,-2.12424 -18.1412,-2.54418 l -5.4694,-0.76351 -4.3762,-14.90442 c -6.6761,-22.73766 -26.6565,-87.75562 -27.1053,-88.20291 -0.2182,-0.21746 -7.53,21.12124 -16.2484,47.41932 -13.6494,41.17161 -16.214,47.81471 -18.4592,47.81471 -3.6808,0 -33.4856,-3.02974 -34.0553,-3.46182 -0.2589,-0.19635 9.195,-27.5165 21.0087,-60.71144 11.8137,-33.19492 21.4795,-61.2852 21.4795,-62.42284 0,-1.94809 -34.6551,-101.481168 -39.3554,-113.0329769 -0.8772,-2.1558968 0.5611,-2.32649546 19.6152,-2.32649546 h 20.5617 L 1128.23,44.905569 c 7.9469,24.148359 14.6865,43.669447 14.9766,43.380217 0.2903,-0.28924 7.0092,-19.897422 14.931,-43.573738 l 14.4033,-43.0478569 18.229,-0.369873 c 10.6346,-0.2157778 18.229,0.1460149 18.229,0.8684078 0,0.6810544 -2.1634,7.4281568 -4.8075,14.9935601 -2.6441,7.565405 -11.6536,33.688029 -20.0213,58.050279 l -15.2139,44.294995 12.5964,38.82465 c 14.1831,43.71549 30.1141,94.87678 30.1141,96.70955 0,1.44845 -0.9989,1.39661 -17.3406,-0.89972 z M 41.604472,153.68664 C 41.836026,100.05285 41.634754,51.833408 41.157193,46.532328 L 40.288906,36.893985 H 20.394453 0.5 V 18.946731 0.99947764 H 61.191722 121.88344 V 18.282018 35.564559 h -20.6752 -20.6752 V 141.07166 246.57877 l -14.339253,1.59544 c -7.88659,0.8775 -16.740245,1.91787 -19.674789,2.31194 l -5.335536,0.71648 z M 137.89005,120.67582 V 0.821742 l 39.68305,0.4769752 c 37.10964,0.4460431 40.28012,0.6748616 48.89018,3.5284689 12.99077,4.3054893 22.12482,13.4386089 26.02438,26.0216779 3.90645,12.605371 4.04903,46.958368 0.24543,59.138481 -3.06556,9.816769 -9.47279,18.580855 -17.15487,23.465145 l -5.68784,3.61635 5.0209,2.29188 c 6.60974,3.01712 12.89414,9.76777 16.3476,17.56042 4.01351,9.0564 5.32523,23.89649 5.33672,60.37699 l 0.0107,32.11452 -12.33844,0.89582 c -6.78613,0.49268 -15.63978,0.69807 -19.67478,0.45641 l -7.33694,-0.43938 -0.66694,-38.55337 c -0.59472,-34.37789 -0.94135,-39.10407 -3.20063,-43.63827 -4.02199,-8.07183 -7.41828,-9.53877 -22.08429,-9.53877 H 178.5735 l -0.3499,48.85641 c -0.19375,27.05189 -0.8748,48.85641 -1.52603,48.85641 -2.43131,0 -29.00549,2.71391 -33.80547,3.45241 l -5.00206,0.76958 z m 67.53552,-19.55474 c 8.97778,-4.64348 9.98411,-8.377645 9.54646,-35.424096 l -0.38365,-23.709345 -4.35617,-3.876253 c -4.22496,-3.759499 -4.77739,-3.876254 -18.34091,-3.876254 h -13.98473 v 35.417187 35.417191 l 11.30113,-0.70271 c 7.3536,-0.45723 13.01858,-1.59098 16.21787,-3.24572 z m 823.49903,134.46671 c -8.4368,-0.91846 -16.09,-1.73041 -17.0071,-1.80433 -1.3201,-0.10642 -1.6673,-24.35731 -1.6673,-116.45919 V 0.99947764 h 20.0082 20.0083 V 119.31841 237.63734 l -3.0013,-0.18982 c -1.6507,-0.10436 -9.9041,-0.94127 -18.3408,-1.85973 z m -54.02234,-4.67178 c -5.8691,-0.56745 -24.7769,-1.9975 -42.01735,-3.1779 -17.24045,-1.18039 -33.89732,-2.46381 -37.01528,-2.85206 l -5.66901,-0.70589 V 112.58982 0.99947764 h 20.00826 20.00826 V 97.159725 193.31997 l 27.01115,1.59623 c 14.85613,0.87793 29.26208,1.92829 32.01322,2.33414 l 5.00206,0.73792 v 17.16569 17.16568 l -4.33512,-0.18594 c -2.38431,-0.10224 -9.1371,-0.65023 -15.00619,-1.21768 z m -703.61979,-4.1159 c 0.005,-2.59314 15.2743,-91.44345 28.12248,-163.649961 L 310.46381,0.99947764 h 29.09409 c 16.00175,0 29.09408,0.29170466 29.09408,0.64823186 0,0.3565272 6.85034,38.1953205 15.22297,84.0862065 19.98633,109.546344 24.10278,133.095934 23.38733,133.795384 -0.32702,0.31974 -9.31588,1.00932 -19.97521,1.53241 l -19.38061,0.95107 -3.09992,-20.11219 c -1.70496,-11.06171 -3.48802,-20.31732 -3.96235,-20.56802 -0.96411,-0.50954 -45.96067,1.76688 -46.55082,2.35504 -0.20638,0.20571 -1.55842,7.79216 -3.00454,16.8588 -1.4461,9.06665 -2.95459,18.37974 -3.35219,20.69575 l -0.7229,4.21092 -10.29781,0.82244 c -5.66379,0.45234 -13.74924,1.15868 -17.96765,1.56966 -5.9163,0.5764 -7.66891,0.33746 -7.66581,-1.04507 z m 80.8627,-76.33763 3.83491,-0.76215 -8.87374,-53.688072 c -4.88056,-29.528437 -9.09566,-54.35157 -9.36688,-55.162511 -0.27122,-0.810944 -4.29673,22.046498 -8.94557,50.794299 -4.64885,28.747814 -8.76219,53.913904 -9.14078,55.924664 l -0.68831,3.65593 h 14.67273 c 8.07,0 16.39844,-0.34297 18.50764,-0.76216 z M 781.1556,219.3632 767.4833,218.93235 V 109.96592 0.99947764 h 52.02148 52.02147 V 16.287878 31.57628 h -32.01321 -32.01322 v 31.709181 31.709188 l 11.00454,0.85379 c 6.0525,0.46958 17.45721,0.85737 25.3438,0.861758 l 14.33924,0.008 v 16.122683 16.12272 l -25.34379,-0.96941 -25.34379,-0.96942 v 46.66502 46.66501 l -6.33596,-0.28038 c -3.48476,-0.15419 -12.48848,-0.47424 -20.00826,-0.71122 z m -327.91974,-2.33196 c -0.24282,-0.73119 -4.36072,-24.06262 -9.1509,-51.84762 C 439.29479,137.3986 430.8697,89.539262 425.36254,58.829517 419.85537,28.119772 415.34691,2.5449356 415.34373,1.9965473 c -0.003,-0.5483883 8.99791,-0.99706966 20.00246,-0.99706966 15.08802,0 20.02178,0.40864996 20.06325,1.66178306 0.0303,0.9139798 6.56624,40.2483773 14.52443,87.4097683 10.33588,61.251901 14.70625,84.418751 15.29836,81.095001 0.4559,-2.55915 6.81994,-40.5475 14.14231,-84.418563 7.32236,-43.871064 13.63024,-81.1116155 14.01751,-82.7567804 0.68721,-2.9193681 1.13599,-2.99120896 18.68613,-2.99120896 9.89011,0 17.98202,0.28037096 17.98202,0.62304686 0,0.3426759 -4.751,26.8148745 -10.55778,58.8271105 -5.80677,32.012237 -14.32014,80.039885 -18.91859,106.728115 -4.59843,26.68823 -8.53558,48.75795 -8.74922,49.0438 -0.9496,1.27061 -58.18305,2.06145 -58.59875,0.80969 z m 217.54085,0.12596 c -16.1223,-3.96941 -27.06158,-11.86973 -33.62917,-24.28695 -5.13142,-9.70189 -7.0543,-18.71612 -7.0543,-33.06977 v -11.2347 h 18.67438 18.67438 v 11.34283 c 0,19.44453 4.08189,24.90023 19.1993,25.66107 8.84798,0.44531 9.9686,0.19728 13.8626,-3.06835 5.10524,-4.28143 7.54011,-12.1442 6.49451,-20.97232 C 705.30929,147.26777 697.38029,136.83908 673.59888,117.6 641.01415,91.239096 631.42713,76.060376 631.42713,50.831373 c 0,-18.875616 6.51789,-33.484573 18.8957,-42.352185 9.02343,-6.4644711 14.23438,-7.47971036 38.3914,-7.47971036 26.58999,0 31.54982,1.26827356 41.92762,10.72131036 10.0404,9.145693 14.36383,19.211613 15.21464,35.423112 l 0.64817,12.350333 H 727.64854 708.7924 v -8.772717 c 0,-10.80657 -2.66305,-16.879766 -8.64144,-19.70722 -9.24233,-4.371115 -23.40914,-1.28626 -27.00174,5.879689 -0.91643,1.82796 -1.6751,7.54336 -1.68591,12.700882 -0.0344,16.433064 6.31961,24.897776 38.04379,50.680873 27.45217,22.31112 36.82461,38.62122 36.82461,64.08295 0,22.7531 -7.61103,38.12511 -23.46002,47.38218 -11.41019,6.66447 -36.45099,9.26797 -52.09498,5.41633 z M 568.28996,215.48023 C 567.80087,214.99279 567.4007,166.5352 567.4007,107.79671 V 0.99947764 h 20.00826 20.00826 V 108.683 216.36652 h -19.119 c -10.51546,0 -19.51918,-0.39883 -20.00826,-0.88629 z"
     id="path7070"
     inkscape:connector-curvature="0" />
</svg>
